<?xml version="1.0" encoding="UTF-8" standalone="no"?>
<!DOCTYPE svg PUBLIC "-//W3C//DTD SVG 1.1//EN" "http://www.w3.org/Graphics/SVG/1.1/DTD/svg11.dtd">
<svg width="100%" height="100%" viewBox="0 0 1955 978" version="1.1" xmlns="http://www.w3.org/2000/svg" xmlns:xlink="http://www.w3.org/1999/xlink" xml:space="preserve" xmlns:serif="http://www.serif.com/" style="fill-rule:evenodd;clip-rule:evenodd;stroke-miterlimit:10;">
    <g transform="matrix(1,0,0,1,-7504,-1720)">
        <g id="Artboard2" transform="matrix(2.00015,0,0,1,-8483.26,1106.94)">
            <rect x="7993.24" y="613.247" width="977.053" height="977.053" style="fill:none;"/>
            <g transform="matrix(-0.309564,0.398522,-0.203346,-0.606692,9150.61,945.511)">
                <g opacity="0.68">
                    <g>
                        <clipPath id="_clip1">
                            <rect x="1180.52" y="363.844" width="1342.57" height="1060.32" clip-rule="nonzero"/>
                        </clipPath>
                        <g clip-path="url(#_clip1)">
                            <g opacity="0.34">
                                <g transform="matrix(-0.394249,-0.919004,-0.919004,0.394249,1973.99,980.313)">
                                    <clipPath id="_clip2">
                                        <path d="M-330.651,213.839L-512.96,-211.126L-87.997,-393.433L94.311,31.533L-330.651,213.839Z" clip-rule="nonzero"/>
                                    </clipPath>
                                    <g clip-path="url(#_clip2)">
                                        <path d="M-209.325,-317.573C-335.121,-317.573 -437.099,-215.595 -437.099,-89.799C-437.099,35.997 -335.12,137.975 -209.325,137.975C-83.529,137.975 18.449,35.996 18.449,-89.799C18.449,-215.595 -83.529,-317.573 -209.325,-317.573Z" style="fill:none;fill-rule:nonzero;stroke:rgb(248,177,180);stroke-width:6.75px;"/>
                                    </g>
                                </g>
                            </g>
                            <g opacity="0.36">
                                <g transform="matrix(-0.394246,-0.919005,-0.919005,0.394246,1957.31,968.452)">
                                    <clipPath id="_clip3">
                                        <path d="M-338.525,218.848L-525.129,-216.136L-90.145,-402.74L96.459,32.243L-338.525,218.848Z" clip-rule="nonzero"/>
                                    </clipPath>
                                    <g clip-path="url(#_clip3)">
                                        <path d="M-214.335,-325.173C-343.141,-325.173 -447.561,-220.754 -447.56,-91.948C-447.56,36.858 -343.143,141.277 -214.335,141.277C-85.529,141.277 18.889,36.859 18.889,-91.948C18.89,-220.754 -85.529,-325.172 -214.335,-325.173Z" style="fill:none;fill-rule:nonzero;stroke:rgb(248,173,176);stroke-width:6.75px;"/>
                                    </g>
                                </g>
                            </g>
                            <g opacity="0.38">
                                <g transform="matrix(-0.394247,-0.919004,-0.919004,0.394247,1940.63,956.594)">
                                    <clipPath id="_clip4">
                                        <path d="M-346.395,223.857L-537.297,-221.144L-92.291,-412.048L98.611,32.952L-346.395,223.857Z" clip-rule="nonzero"/>
                                    </clipPath>
                                    <g clip-path="url(#_clip4)">
                                        <path d="M-219.344,-332.772C-351.161,-332.772 -458.02,-225.914 -458.019,-94.096C-458.019,37.72 -351.16,144.58 -219.343,144.578C-87.527,144.579 19.332,37.72 19.332,-94.097C19.332,-225.913 -87.526,-332.772 -219.344,-332.772Z" style="fill:none;fill-rule:nonzero;stroke:rgb(248,169,172);stroke-width:6.75px;"/>
                                    </g>
                                </g>
                            </g>
                            <g opacity="0.39">
                                <g transform="matrix(-0.394248,-0.919004,-0.919004,0.394248,1923.95,944.734)">
                                    <clipPath id="_clip5">
                                        <path d="M-354.266,228.865L-549.47,-226.162L-94.444,-421.366L100.76,33.661L-354.266,228.865Z" clip-rule="nonzero"/>
                                    </clipPath>
                                    <g clip-path="url(#_clip5)">
                                        <path d="M-224.354,-340.373C-359.181,-340.373 -468.48,-231.074 -468.48,-96.246C-468.479,38.582 -359.18,147.88 -224.354,147.88C-89.526,147.88 19.773,38.581 19.772,-96.246C19.773,-231.074 -89.527,-340.373 -224.354,-340.373Z" style="fill:none;fill-rule:nonzero;stroke:rgb(248,166,169);stroke-width:6.75px;"/>
                                    </g>
                                </g>
                            </g>
                            <g opacity="0.41">
                                <g transform="matrix(-0.394247,-0.919005,-0.919005,0.394247,1907.27,932.874)">
                                    <clipPath id="_clip6">
                                        <path d="M-362.133,233.883L-561.638,-231.17L-96.59,-430.672L102.914,34.381L-362.133,233.883Z" clip-rule="nonzero"/>
                                    </clipPath>
                                    <g clip-path="url(#_clip6)">
                                        <path d="M-229.362,-347.972C-367.2,-347.972 -478.939,-236.232 -478.939,-98.394C-478.939,39.443 -367.2,151.183 -229.362,151.183C-91.525,151.183 20.215,39.443 20.216,-98.394C20.216,-236.232 -91.524,-347.972 -229.362,-347.972Z" style="fill:none;fill-rule:nonzero;stroke:rgb(247,162,165);stroke-width:6.75px;"/>
                                    </g>
                                </g>
                            </g>
                            <g opacity="0.43">
                                <g transform="matrix(-0.394248,-0.919004,-0.919004,0.394248,1890.59,921.014)">
                                    <clipPath id="_clip7">
                                        <path d="M-370.006,238.891L-573.809,-236.179L-98.74,-439.981L105.063,35.088L-370.006,238.891Z" clip-rule="nonzero"/>
                                    </clipPath>
                                    <g clip-path="url(#_clip7)">
                                        <path d="M-234.373,-355.573C-375.22,-355.572 -489.401,-241.392 -489.401,-100.544C-489.4,40.304 -375.22,154.483 -234.373,154.483C-93.524,154.483 20.656,40.302 20.655,-100.545C20.655,-241.392 -93.526,-355.573 -234.373,-355.573Z" style="fill:none;fill-rule:nonzero;stroke:rgb(247,158,162);stroke-width:6.75px;"/>
                                    </g>
                                </g>
                            </g>
                            <g opacity="0.44">
                                <g transform="matrix(-0.394247,-0.919005,-0.919005,0.394247,1873.91,909.154)">
                                    <clipPath id="_clip8">
                                        <path d="M-377.878,243.9L-585.977,-241.188L-100.887,-449.288L107.212,35.799L-377.878,243.9Z" clip-rule="nonzero"/>
                                    </clipPath>
                                    <g clip-path="url(#_clip8)">
                                        <path d="M-239.382,-363.172C-383.24,-363.173 -499.86,-246.553 -499.861,-102.695C-499.86,41.165 -383.24,157.786 -239.382,157.786C-95.523,157.787 21.098,41.165 21.097,-102.693C21.097,-246.552 -95.523,-363.172 -239.382,-363.172Z" style="fill:none;fill-rule:nonzero;stroke:rgb(247,155,158);stroke-width:6.75px;"/>
                                    </g>
                                </g>
                            </g>
                            <g opacity="0.46">
                                <g transform="matrix(-0.394249,-0.919004,-0.919004,0.394249,1857.23,897.294)">
                                    <clipPath id="_clip9">
                                        <path d="M-385.746,248.917L-598.147,-246.196L-103.036,-458.597L109.366,36.516L-385.746,248.917Z" clip-rule="nonzero"/>
                                    </clipPath>
                                    <g clip-path="url(#_clip9)">
                                        <path d="M-244.392,-370.773C-391.261,-370.772 -510.322,-251.712 -510.321,-104.842C-510.321,42.026 -391.26,161.087 -244.392,161.086C-97.522,161.087 21.539,42.025 21.538,-104.843C21.538,-251.712 -97.523,-370.773 -244.392,-370.773Z" style="fill:none;fill-rule:nonzero;stroke:rgb(246,151,154);stroke-width:6.75px;"/>
                                    </g>
                                </g>
                            </g>
                            <g opacity="0.48">
                                <g transform="matrix(-0.394247,-0.919005,-0.919005,0.394247,1840.55,885.434)">
                                    <clipPath id="_clip10">
                                        <path d="M-393.617,253.927L-610.314,-251.204L-105.182,-467.903L111.516,37.228L-393.617,253.927Z" clip-rule="nonzero"/>
                                    </clipPath>
                                    <g clip-path="url(#_clip10)">
                                        <path d="M-249.4,-378.371C-399.279,-378.372 -520.782,-256.87 -520.781,-106.991C-520.781,42.888 -399.28,164.39 -249.4,164.39C-99.521,164.391 21.98,42.889 21.98,-106.99C21.981,-256.87 -99.521,-378.371 -249.4,-378.371Z" style="fill:none;fill-rule:nonzero;stroke:rgb(246,147,151);stroke-width:6.75px;"/>
                                    </g>
                                </g>
                            </g>
                            <g opacity="0.49">
                                <g transform="matrix(-0.394247,-0.919005,-0.919005,0.394247,1823.87,873.574)">
                                    <clipPath id="_clip11">
                                        <path d="M-401.489,258.934L-622.488,-256.223L-107.333,-477.221L113.666,37.936L-401.489,258.934Z" clip-rule="nonzero"/>
                                    </clipPath>
                                    <g clip-path="url(#_clip11)">
                                        <path d="M-254.41,-385.973C-407.3,-385.972 -531.241,-262.031 -531.242,-109.14C-531.241,43.749 -407.3,167.691 -254.41,167.69C-101.52,167.691 22.421,43.749 22.422,-109.14C22.421,-262.031 -101.52,-385.973 -254.41,-385.973Z" style="fill:none;fill-rule:nonzero;stroke:rgb(246,143,147);stroke-width:6.75px;"/>
                                    </g>
                                </g>
                            </g>
                            <g opacity="0.51">
                                <g transform="matrix(-0.394247,-0.919004,-0.919004,0.394247,1807.19,861.715)">
                                    <clipPath id="_clip12">
                                        <path d="M-409.359,263.944L-634.656,-261.23L-109.481,-486.528L115.816,38.647L-409.359,263.944Z" clip-rule="nonzero"/>
                                    </clipPath>
                                    <g clip-path="url(#_clip12)">
                                        <path d="M-259.419,-393.571C-415.318,-393.572 -541.701,-267.19 -541.701,-111.289C-541.701,44.611 -415.319,170.993 -259.419,170.993C-103.518,170.994 22.864,44.61 22.864,-111.29C22.864,-267.189 -103.518,-393.571 -259.419,-393.571Z" style="fill:none;fill-rule:nonzero;stroke:rgb(245,140,144);stroke-width:6.75px;"/>
                                    </g>
                                </g>
                            </g>
                            <g opacity="0.52">
                                <g transform="matrix(-0.394247,-0.919004,-0.919004,0.394247,1790.51,849.855)">
                                    <clipPath id="_clip13">
                                        <path d="M-417.228,268.961L-646.826,-266.24L-111.629,-495.836L117.969,39.365L-417.228,268.961Z" clip-rule="nonzero"/>
                                    </clipPath>
                                    <g clip-path="url(#_clip13)">
                                        <path d="M-264.428,-401.172C-423.339,-401.172 -552.163,-272.35 -552.161,-113.439C-552.162,45.471 -423.339,174.294 -264.428,174.294C-105.518,174.295 23.305,45.472 23.304,-113.439C23.305,-272.35 -105.518,-401.172 -264.428,-401.172Z" style="fill:none;fill-rule:nonzero;stroke:rgb(245,136,140);stroke-width:6.75px;"/>
                                    </g>
                                </g>
                            </g>
                            <g opacity="0.54">
                                <g transform="matrix(-0.394248,-0.919004,-0.919004,0.394248,1773.83,837.995)">
                                    <clipPath id="_clip14">
                                        <path d="M-425.098,273.97L-658.993,-271.248L-113.776,-505.143L120.12,40.074L-425.098,273.97Z" clip-rule="nonzero"/>
                                    </clipPath>
                                    <g clip-path="url(#_clip14)">
                                        <path d="M-269.438,-408.771C-431.359,-408.771 -562.621,-277.508 -562.621,-115.587C-562.621,46.333 -431.359,177.596 -269.438,177.596C-107.516,177.597 23.747,46.333 23.747,-115.588C23.746,-277.508 -107.516,-408.771 -269.438,-408.771Z" style="fill:none;fill-rule:nonzero;stroke:rgb(245,132,137);stroke-width:6.75px;"/>
                                    </g>
                                </g>
                            </g>
                            <g opacity="0.56">
                                <g transform="matrix(-0.394248,-0.919004,-0.919004,0.394248,1757.14,826.136)">
                                    <clipPath id="_clip15">
                                        <path d="M-432.97,278.978L-671.163,-276.256L-115.924,-514.451L122.269,40.784L-432.97,278.978Z" clip-rule="nonzero"/>
                                    </clipPath>
                                    <g clip-path="url(#_clip15)">
                                        <path d="M-274.447,-416.372C-439.378,-416.371 -573.082,-282.668 -573.083,-117.736C-573.082,47.195 -439.378,180.899 -274.447,180.899C-109.515,180.897 24.189,47.195 24.189,-117.737C24.188,-282.669 -109.517,-416.372 -274.447,-416.372Z" style="fill:none;fill-rule:nonzero;stroke:rgb(244,128,133);stroke-width:6.75px;"/>
                                    </g>
                                </g>
                            </g>
                            <g opacity="0.57">
                                <g transform="matrix(-0.394248,-0.919004,-0.919004,0.394248,1740.47,814.276)">
                                    <clipPath id="_clip16">
                                        <path d="M-440.841,283.988L-683.33,-281.264L-118.07,-523.758L124.42,41.494L-440.841,283.988Z" clip-rule="nonzero"/>
                                    </clipPath>
                                    <g clip-path="url(#_clip16)">
                                        <path d="M-279.455,-423.97C-447.397,-423.971 -583.541,-287.827 -583.541,-119.885C-583.541,48.057 -447.397,184.201 -279.455,184.201C-111.514,184.201 24.63,48.057 24.63,-119.885C24.63,-287.827 -111.513,-423.971 -279.455,-423.97Z" style="fill:none;fill-rule:nonzero;stroke:rgb(244,125,129);stroke-width:6.75px;"/>
                                    </g>
                                </g>
                            </g>
                            <g opacity="0.59">
                                <g transform="matrix(-0.394247,-0.919004,-0.919004,0.394247,1723.78,802.415)">
                                    <clipPath id="_clip17">
                                        <path d="M-448.71,289.006L-695.505,-286.282L-120.222,-533.075L126.572,42.213L-448.71,289.006Z" clip-rule="nonzero"/>
                                    </clipPath>
                                    <g clip-path="url(#_clip17)">
                                        <path d="M-284.465,-431.571C-455.418,-431.57 -594.003,-292.986 -594.002,-122.033C-594.002,48.918 -455.418,187.502 -284.465,187.503C-113.513,187.502 25.071,48.918 25.071,-122.035C25.071,-292.986 -113.514,-431.571 -284.465,-431.571Z" style="fill:none;fill-rule:nonzero;stroke:rgb(244,121,126);stroke-width:6.75px;"/>
                                    </g>
                                </g>
                            </g>
                            <g opacity="0.61">
                                <g transform="matrix(-0.394247,-0.919004,-0.919004,0.394247,1707.1,790.556)">
                                    <clipPath id="_clip18">
                                        <path d="M-456.581,294.014L-707.673,-291.29L-122.369,-542.382L128.723,42.923L-456.581,294.014Z" clip-rule="nonzero"/>
                                    </clipPath>
                                    <g clip-path="url(#_clip18)">
                                        <path d="M-289.475,-439.171C-463.437,-439.171 -604.462,-298.146 -604.462,-124.183C-604.462,49.78 -463.437,190.805 -289.475,190.805C-115.512,190.804 25.513,49.78 25.513,-124.183C25.513,-298.145 -115.512,-439.17 -289.475,-439.171Z" style="fill:none;fill-rule:nonzero;stroke:rgb(243,117,122);stroke-width:6.75px;"/>
                                    </g>
                                </g>
                            </g>
                            <g opacity="0.62">
                                <g transform="matrix(-0.394247,-0.919004,-0.919004,0.394247,1690.42,778.696)">
                                    <clipPath id="_clip19">
                                        <path d="M-464.452,299.022L-719.841,-296.3L-124.517,-551.69L130.872,43.632L-464.452,299.022Z" clip-rule="nonzero"/>
                                    </clipPath>
                                    <g clip-path="url(#_clip19)">
                                        <path d="M-294.483,-446.771C-471.457,-446.77 -614.922,-303.306 -614.922,-126.333C-614.922,50.64 -471.458,194.106 -294.483,194.106C-117.511,194.105 25.955,50.64 25.955,-126.333C25.954,-303.305 -117.51,-446.771 -294.483,-446.771Z" style="fill:none;fill-rule:nonzero;stroke:rgb(243,114,119);stroke-width:6.75px;"/>
                                    </g>
                                </g>
                            </g>
                            <g opacity="0.64">
                                <g transform="matrix(-0.394248,-0.919004,-0.919004,0.394248,1673.74,766.836)">
                                    <clipPath id="_clip20">
                                        <path d="M-472.319,304.041L-732.01,-301.307L-126.665,-560.997L133.026,44.351L-472.319,304.041Z" clip-rule="nonzero"/>
                                    </clipPath>
                                    <g clip-path="url(#_clip20)">
                                        <path d="M-299.494,-454.37C-479.476,-454.37 -625.383,-308.464 -625.383,-128.48C-625.383,51.503 -479.476,197.408 -299.494,197.408C-119.51,197.408 26.396,51.503 26.396,-128.481C26.396,-308.465 -119.51,-454.37 -299.494,-454.37Z" style="fill:none;fill-rule:nonzero;stroke:rgb(243,110,115);stroke-width:6.75px;"/>
                                    </g>
                                </g>
                            </g>
                            <g opacity="0.66">
                                <g transform="matrix(-0.394247,-0.919004,-0.919004,0.394247,1657.06,754.977)">
                                    <clipPath id="_clip21">
                                        <path d="M-480.19,309.05L-744.179,-306.315L-128.811,-570.304L135.177,45.061L-480.19,309.05Z" clip-rule="nonzero"/>
                                    </clipPath>
                                    <g clip-path="url(#_clip21)">
                                        <path d="M-304.502,-461.969C-487.497,-461.97 -635.842,-313.624 -635.842,-130.629C-635.842,52.365 -487.497,200.71 -304.502,200.711C-121.508,200.71 26.838,52.365 26.839,-130.629C26.838,-313.624 -121.508,-461.969 -304.502,-461.969Z" style="fill:none;fill-rule:nonzero;stroke:rgb(243,106,111);stroke-width:6.75px;"/>
                                    </g>
                                </g>
                            </g>
                            <g opacity="0.67">
                                <g transform="matrix(-0.394248,-0.919004,-0.919004,0.394248,1640.38,743.116)">
                                    <clipPath id="_clip22">
                                        <path d="M-488.063,314.058L-756.349,-311.324L-130.961,-579.612L137.325,45.77L-488.063,314.058Z" clip-rule="nonzero"/>
                                    </clipPath>
                                    <g clip-path="url(#_clip22)">
                                        <path d="M-309.513,-469.57C-495.516,-469.57 -646.303,-318.783 -646.303,-132.779C-646.303,53.226 -495.516,204.012 -309.513,204.011C-123.507,204.011 27.279,53.225 27.278,-132.779C27.278,-318.783 -123.508,-469.57 -309.513,-469.57Z" style="fill:none;fill-rule:nonzero;stroke:rgb(242,102,108);stroke-width:6.75px;"/>
                                    </g>
                                </g>
                            </g>
                            <g opacity="0.69">
                                <g transform="matrix(-0.394248,-0.919004,-0.919004,0.394248,1623.7,731.257)">
                                    <clipPath id="_clip23">
                                        <path d="M-495.933,319.066L-768.52,-316.343L-133.112,-588.93L139.475,46.479L-495.933,319.066Z" clip-rule="nonzero"/>
                                    </clipPath>
                                    <g clip-path="url(#_clip23)">
                                        <path d="M-314.521,-477.17C-503.537,-477.17 -656.763,-323.944 -656.763,-134.928C-656.763,54.087 -503.537,207.313 -314.521,207.313C-125.506,207.313 27.72,54.085 27.721,-134.929C27.72,-323.944 -125.506,-477.17 -314.521,-477.17Z" style="fill:none;fill-rule:nonzero;stroke:rgb(242,99,104);stroke-width:6.75px;"/>
                                    </g>
                                </g>
                            </g>
                            <g opacity="0.7">
                                <g transform="matrix(-0.394246,-0.919005,-0.919005,0.394246,1607.02,719.396)">
                                    <clipPath id="_clip24">
                                        <path d="M-503.803,324.084L-780.69,-321.351L-135.259,-598.236L141.628,47.199L-503.803,324.084Z" clip-rule="nonzero"/>
                                    </clipPath>
                                    <g clip-path="url(#_clip24)">
                                        <path d="M-319.532,-484.769C-511.557,-484.769 -667.224,-329.103 -667.224,-137.078C-667.224,54.949 -511.558,210.615 -319.532,210.615C-127.507,210.617 28.161,54.949 28.16,-137.076C28.161,-329.102 -127.505,-484.769 -319.532,-484.769Z" style="fill:none;fill-rule:nonzero;stroke:rgb(242,95,101);stroke-width:6.75px;"/>
                                    </g>
                                </g>
                            </g>
                            <g opacity="0.72">
                                <g transform="matrix(-0.394248,-0.919004,-0.919004,0.394248,1590.34,707.537)">
                                    <clipPath id="_clip25">
                                        <path d="M-511.673,329.093L-792.859,-326.359L-137.407,-607.545L143.779,47.907L-511.673,329.093Z" clip-rule="nonzero"/>
                                    </clipPath>
                                    <g clip-path="url(#_clip25)">
                                        <path d="M-324.54,-492.369C-519.576,-492.37 -677.684,-334.262 -677.684,-139.226C-677.684,55.81 -519.575,213.917 -324.54,213.917C-129.504,213.918 28.604,55.81 28.603,-139.226C28.604,-334.262 -129.505,-492.369 -324.54,-492.369Z" style="fill:none;fill-rule:nonzero;stroke:rgb(241,91,97);stroke-width:6.75px;"/>
                                    </g>
                                </g>
                            </g>
                            <g opacity="0.74">
                                <g transform="matrix(-0.394246,-0.919005,-0.919005,0.394246,1573.66,695.676)">
                                    <clipPath id="_clip26">
                                        <path d="M-519.546,334.102L-805.028,-331.368L-139.554,-616.851L145.927,48.619L-519.546,334.102Z" clip-rule="nonzero"/>
                                    </clipPath>
                                    <g clip-path="url(#_clip26)">
                                        <path d="M-329.55,-499.969C-527.596,-499.969 -688.144,-339.421 -688.144,-141.375C-688.144,56.672 -527.597,217.22 -329.55,217.22C-131.504,217.22 29.044,56.672 29.044,-141.374C29.044,-339.421 -131.503,-499.969 -329.55,-499.969Z" style="fill:none;fill-rule:nonzero;stroke:rgb(241,88,93);stroke-width:6.75px;"/>
                                    </g>
                                </g>
                            </g>
                            <g opacity="0.75">
                                <g transform="matrix(-0.394248,-0.919004,-0.919004,0.394248,1556.98,683.818)">
                                    <clipPath id="_clip27">
                                        <path d="M-527.412,339.12L-817.196,-336.376L-141.702,-626.159L148.082,49.336L-527.412,339.12Z" clip-rule="nonzero"/>
                                    </clipPath>
                                    <g clip-path="url(#_clip27)">
                                        <path d="M-334.558,-507.569C-535.615,-507.569 -698.604,-344.58 -698.603,-143.524C-698.603,57.533 -535.614,220.521 -334.558,220.522C-133.502,220.521 29.487,57.532 29.486,-143.524C29.487,-344.58 -133.503,-507.568 -334.558,-507.569Z" style="fill:none;fill-rule:nonzero;stroke:rgb(241,84,90);stroke-width:6.75px;"/>
                                    </g>
                                </g>
                            </g>
                            <g opacity="0.77">
                                <g transform="matrix(-0.394248,-0.919004,-0.919004,0.394248,1540.3,671.956)">
                                    <clipPath id="_clip28">
                                        <path d="M-535.284,344.129L-829.37,-341.393L-143.854,-635.475L150.231,50.047L-535.284,344.129Z" clip-rule="nonzero"/>
                                    </clipPath>
                                    <g clip-path="url(#_clip28)">
                                        <path d="M-339.569,-515.168C-543.636,-515.168 -709.065,-349.739 -709.065,-145.671C-709.064,58.396 -543.636,223.824 -339.569,223.825C-135.502,223.824 29.927,58.394 29.927,-145.672C29.927,-349.739 -135.502,-515.168 -339.569,-515.168Z" style="fill:none;fill-rule:nonzero;stroke:rgb(240,80,86);stroke-width:6.75px;"/>
                                    </g>
                                </g>
                            </g>
                            <g opacity="0.79">
                                <g transform="matrix(-0.394248,-0.919004,-0.919004,0.394248,1523.62,660.098)">
                                    <clipPath id="_clip29">
                                        <path d="M-543.155,349.138L-841.538,-346.401L-146.001,-644.783L152.381,50.756L-543.155,349.138Z" clip-rule="nonzero"/>
                                    </clipPath>
                                    <g clip-path="url(#_clip29)">
                                        <path d="M-344.577,-522.768C-551.656,-522.768 -719.524,-354.899 -719.523,-147.821C-719.523,59.257 -551.654,227.127 -344.577,227.126C-137.5,227.126 30.37,59.256 30.37,-147.822C30.37,-354.899 -137.5,-522.767 -344.577,-522.768Z" style="fill:none;fill-rule:nonzero;stroke:rgb(240,76,83);stroke-width:6.75px;"/>
                                    </g>
                                </g>
                            </g>
                            <g opacity="0.8">
                                <g transform="matrix(-0.394247,-0.919005,-0.919005,0.394247,1506.94,648.237)">
                                    <clipPath id="_clip30">
                                        <path d="M-551.028,354.145L-853.707,-351.411L-148.149,-654.091L154.53,51.465L-551.028,354.145Z" clip-rule="nonzero"/>
                                    </clipPath>
                                    <g clip-path="url(#_clip30)">
                                        <path d="M-349.588,-530.368C-559.675,-530.368 -729.985,-360.059 -729.986,-149.971C-729.985,60.117 -559.676,230.427 -349.588,230.426C-139.499,230.427 30.81,60.118 30.809,-149.97C30.81,-360.059 -139.5,-530.369 -349.588,-530.368Z" style="fill:none;fill-rule:nonzero;stroke:rgb(240,73,79);stroke-width:6.75px;"/>
                                    </g>
                                </g>
                            </g>
                            <g opacity="0.82">
                                <g transform="matrix(-0.394247,-0.919005,-0.919005,0.394247,1490.26,636.376)">
                                    <clipPath id="_clip31">
                                        <path d="M-558.897,359.164L-865.877,-356.419L-150.297,-663.398L156.684,52.185L-558.897,359.164Z" clip-rule="nonzero"/>
                                    </clipPath>
                                    <g clip-path="url(#_clip31)">
                                        <path d="M-354.597,-537.968C-567.695,-537.968 -740.446,-365.218 -740.446,-152.119C-740.445,60.978 -567.696,233.729 -354.597,233.728C-141.499,233.729 31.251,60.979 31.252,-152.119C31.251,-365.217 -141.499,-537.968 -354.597,-537.968Z" style="fill:none;fill-rule:nonzero;stroke:rgb(239,69,75);stroke-width:6.75px;"/>
                                    </g>
                                </g>
                            </g>
                            <g opacity="0.84">
                                <g transform="matrix(-0.394247,-0.919005,-0.919005,0.394247,1473.58,624.517)">
                                    <clipPath id="_clip32">
                                        <path d="M-566.767,364.172L-878.045,-361.428L-152.444,-672.706L158.834,52.894L-566.767,364.172Z" clip-rule="nonzero"/>
                                    </clipPath>
                                    <g clip-path="url(#_clip32)">
                                        <path d="M-359.606,-545.567C-575.714,-545.567 -750.906,-370.377 -750.906,-154.268C-750.906,61.839 -575.715,237.032 -359.606,237.032C-143.499,237.032 31.692,61.841 31.693,-154.268C31.693,-370.376 -143.498,-545.567 -359.606,-545.567Z" style="fill:none;fill-rule:nonzero;stroke:rgb(239,65,72);stroke-width:6.75px;"/>
                                    </g>
                                </g>
                            </g>
                            <g opacity="0.85">
                                <g transform="matrix(-0.394248,-0.919004,-0.919004,0.394248,1456.9,612.658)">
                                    <clipPath id="_clip33">
                                        <path d="M-574.638,369.18L-890.214,-366.436L-154.592,-682.014L160.984,53.603L-574.638,369.18Z" clip-rule="nonzero"/>
                                    </clipPath>
                                    <g clip-path="url(#_clip33)">
                                        <path d="M-364.616,-553.169C-583.734,-553.168 -761.366,-375.537 -761.365,-156.418C-761.365,62.701 -583.734,240.333 -364.616,240.332C-145.496,240.332 32.136,62.7 32.134,-156.418C32.134,-375.537 -145.497,-553.168 -364.616,-553.169Z" style="fill:none;fill-rule:nonzero;stroke:rgb(239,61,68);stroke-width:6.75px;"/>
                                    </g>
                                </g>
                            </g>
                            <g opacity="0.87">
                                <g transform="matrix(-0.394247,-0.919005,-0.919005,0.394247,1440.22,600.798)">
                                    <clipPath id="_clip34">
                                        <path d="M-582.51,374.189L-902.386,-371.454L-156.742,-691.331L163.134,54.313L-582.51,374.189Z" clip-rule="nonzero"/>
                                    </clipPath>
                                    <g clip-path="url(#_clip34)">
                                        <path d="M-369.625,-560.767C-591.754,-560.768 -771.825,-380.696 -771.825,-158.567C-771.826,63.562 -591.754,243.634 -369.625,243.634C-147.495,243.635 32.576,63.563 32.577,-158.567C32.577,-380.696 -147.494,-560.768 -369.625,-560.767Z" style="fill:none;fill-rule:nonzero;stroke:rgb(238,58,65);stroke-width:6.75px;"/>
                                    </g>
                                </g>
                            </g>
                            <g opacity="0.89">
                                <g transform="matrix(-0.394247,-0.919004,-0.919004,0.394247,1423.54,588.938)">
                                    <clipPath id="_clip35">
                                        <path d="M-590.378,379.208L-914.556,-376.462L-158.891,-700.638L165.287,55.032L-590.378,379.208Z" clip-rule="nonzero"/>
                                    </clipPath>
                                    <g clip-path="url(#_clip35)">
                                        <path d="M-374.634,-568.367C-599.774,-568.368 -782.286,-385.855 -782.286,-160.715C-782.286,64.424 -599.774,246.936 -374.634,246.938C-149.494,246.937 33.018,64.425 33.018,-160.715C33.018,-385.855 -149.495,-568.367 -374.634,-568.367Z" style="fill:none;fill-rule:nonzero;stroke:rgb(238,54,61);stroke-width:6.75px;"/>
                                    </g>
                                </g>
                            </g>
                            <g opacity="0.9">
                                <g transform="matrix(-0.394247,-0.919004,-0.919004,0.394247,1406.86,577.078)">
                                    <clipPath id="_clip36">
                                        <path d="M-598.249,384.217L-926.724,-381.47L-161.038,-709.945L167.437,55.742L-598.249,384.217Z" clip-rule="nonzero"/>
                                    </clipPath>
                                    <g clip-path="url(#_clip36)">
                                        <path d="M-379.643,-575.966C-607.794,-575.967 -792.746,-391.014 -792.747,-162.864C-792.746,65.286 -607.793,250.239 -379.643,250.239C-151.493,250.239 33.459,65.287 33.46,-162.864C33.46,-391.014 -151.493,-575.967 -379.643,-575.966Z" style="fill:none;fill-rule:nonzero;stroke:rgb(238,50,58);stroke-width:6.75px;"/>
                                    </g>
                                </g>
                            </g>
                            <g opacity="0.92">
                                <g transform="matrix(-0.394247,-0.919005,-0.919005,0.394247,1390.18,565.218)">
                                    <clipPath id="_clip37">
                                        <path d="M-606.121,389.224L-938.893,-386.481L-163.186,-719.254L169.586,56.451L-606.121,389.224Z" clip-rule="nonzero"/>
                                    </clipPath>
                                    <g clip-path="url(#_clip37)">
                                        <path d="M-384.653,-583.568C-615.812,-583.568 -803.207,-396.176 -803.206,-165.014C-803.207,66.146 -615.814,253.539 -384.653,253.54C-153.493,253.54 33.9,66.147 33.901,-165.014C33.901,-396.174 -153.491,-583.568 -384.653,-583.568Z" style="fill:none;fill-rule:nonzero;stroke:rgb(238,47,54);stroke-width:6.75px;"/>
                                    </g>
                                </g>
                            </g>
                            <g opacity="0.93">
                                <g transform="matrix(-0.394247,-0.919005,-0.919005,0.394247,1373.5,553.359)">
                                    <clipPath id="_clip38">
                                        <path d="M-613.988,394.242L-951.061,-391.489L-165.333,-728.561L171.741,57.169L-613.988,394.242Z" clip-rule="nonzero"/>
                                    </clipPath>
                                    <g clip-path="url(#_clip38)">
                                        <path d="M-389.662,-591.167C-623.833,-591.167 -813.666,-401.334 -813.666,-167.163C-813.667,67.008 -623.833,256.841 -389.662,256.842C-155.49,256.841 34.343,67.008 34.343,-167.163C34.343,-401.334 -155.49,-591.167 -389.662,-591.167Z" style="fill:none;fill-rule:nonzero;stroke:rgb(237,43,50);stroke-width:6.75px;"/>
                                    </g>
                                </g>
                            </g>
                            <g opacity="0.95">
                                <g transform="matrix(-0.394247,-0.919005,-0.919005,0.394247,1356.82,541.498)">
                                    <clipPath id="_clip39">
                                        <path d="M-621.86,399.251L-963.231,-396.497L-167.48,-737.868L173.89,57.879L-621.86,399.251Z" clip-rule="nonzero"/>
                                    </clipPath>
                                    <g clip-path="url(#_clip39)">
                                        <path d="M-394.671,-598.767C-631.853,-598.767 -824.127,-406.493 -824.127,-169.311C-824.127,67.87 -631.853,260.144 -394.671,260.144C-157.49,260.144 34.784,67.87 34.783,-169.311C34.784,-406.493 -157.49,-598.766 -394.671,-598.767Z" style="fill:none;fill-rule:nonzero;stroke:rgb(237,39,47);stroke-width:6.75px;"/>
                                    </g>
                                </g>
                            </g>
                            <g opacity="0.97">
                                <g transform="matrix(-0.394247,-0.919004,-0.919004,0.394247,1340.14,529.639)">
                                    <clipPath id="_clip40">
                                        <path d="M-629.731,404.259L-975.403,-401.514L-169.632,-747.185L176.04,58.589L-629.731,404.259Z" clip-rule="nonzero"/>
                                    </clipPath>
                                    <g clip-path="url(#_clip40)">
                                        <path d="M-399.68,-606.366C-639.872,-606.367 -834.586,-411.653 -834.586,-171.46C-834.587,68.731 -639.872,263.445 -399.681,263.445C-159.489,263.446 35.225,68.731 35.226,-171.461C35.225,-411.653 -159.488,-606.368 -399.68,-606.366Z" style="fill:none;fill-rule:nonzero;stroke:rgb(237,35,43);stroke-width:6.75px;"/>
                                    </g>
                                </g>
                            </g>
                            <g opacity="0.98">
                                <g transform="matrix(-0.394247,-0.919004,-0.919004,0.394247,1323.46,517.779)">
                                    <clipPath id="_clip41">
                                        <path d="M-637.602,409.268L-987.571,-406.523L-171.779,-756.493L178.19,59.298L-637.602,409.268Z" clip-rule="nonzero"/>
                                    </clipPath>
                                    <g clip-path="url(#_clip41)">
                                        <path d="M-404.69,-613.967C-647.892,-613.967 -845.047,-416.813 -845.047,-173.61C-845.047,69.593 -647.893,266.747 -404.69,266.747C-161.487,266.747 35.667,69.593 35.667,-173.61C35.667,-416.812 -161.487,-613.967 -404.69,-613.967Z" style="fill:none;fill-rule:nonzero;stroke:rgb(236,32,40);stroke-width:6.75px;"/>
                                    </g>
                                </g>
                            </g>
                            <g transform="matrix(-0.394248,-0.919004,-0.919004,0.394248,1306.78,505.919)">
                                <path d="M-409.699,-621.565C-655.912,-621.566 -855.507,-421.97 -855.507,-175.758C-855.507,70.455 -655.911,270.05 -409.699,270.05C-163.486,270.05 36.108,70.455 36.109,-175.758C36.109,-421.971 -163.486,-621.567 -409.699,-621.565Z" style="fill:none;fill-rule:nonzero;stroke:rgb(236,28,36);stroke-width:6.75px;"/>
                            </g>
                        </g>
                    </g>
                </g>
            </g>
        </g>
    </g>
</svg>
