<?xml version="1.0" encoding="UTF-8" standalone="no"?>
<!DOCTYPE svg PUBLIC "-//W3C//DTD SVG 1.1//EN" "http://www.w3.org/Graphics/SVG/1.1/DTD/svg11.dtd">
<svg width="100%" height="100%" viewBox="0 0 1955 978" version="1.1" xmlns="http://www.w3.org/2000/svg" xmlns:xlink="http://www.w3.org/1999/xlink" xml:space="preserve" xmlns:serif="http://www.serif.com/" style="fill-rule:evenodd;clip-rule:evenodd;stroke-miterlimit:10;">
    <g transform="matrix(1,0,0,1,-7504,-613)">
        <g id="Artboard2" transform="matrix(2.00015,0,0,1,-8483.26,-0.247401)">
            <rect x="7993.24" y="613.247" width="977.053" height="977.053" style="fill:none;"/>
            <g transform="matrix(0.341095,-0.448963,0.224465,0.682241,8227.28,1054.24)">
                <g opacity="0.81">
                    <g>
                        <clipPath id="_clip1">
                            <rect x="-177.267" y="-94.62" width="1068.03" height="885.644" clip-rule="nonzero"/>
                        </clipPath>
                        <g clip-path="url(#_clip1)">
                            <g transform="matrix(0.408138,0.91292,0.91292,-0.408138,-150.482,-59.9149)">
                                <ellipse cx="92.279" cy="41.255" rx="101.081" ry="101.081" style="fill:none;stroke:rgb(24,11,62);stroke-width:2.01px;"/>
                            </g>
                            <g transform="matrix(0.408137,0.912921,0.912921,-0.408137,-144.841,-56.884)">
                                <ellipse cx="96.718" cy="43.239" rx="105.944" ry="105.944" style="fill:none;stroke:rgb(27,11,62);stroke-width:2.07px;"/>
                            </g>
                            <g transform="matrix(0.408135,0.912921,0.912921,-0.408135,-139.201,-53.8523)">
                                <ellipse cx="101.157" cy="45.224" rx="110.807" ry="110.807" style="fill:none;stroke:rgb(31,12,61);stroke-width:2.14px;"/>
                            </g>
                            <g transform="matrix(0.408139,0.91292,0.91292,-0.408139,-133.562,-50.8208)">
                                <ellipse cx="105.597" cy="47.209" rx="115.67" ry="115.669" style="fill:none;stroke:rgb(34,12,61);stroke-width:2.21px;"/>
                            </g>
                            <g transform="matrix(0.40814,0.912919,0.912919,-0.40814,-127.921,-47.789)">
                                <ellipse cx="110.036" cy="49.194" rx="120.531" ry="120.532" style="fill:none;stroke:rgb(38,12,60);stroke-width:2.27px;"/>
                            </g>
                            <g transform="matrix(0.408137,0.912921,0.912921,-0.408137,-122.281,-44.7579)">
                                <ellipse cx="114.475" cy="51.179" rx="125.395" ry="125.395" style="fill:none;stroke:rgb(41,12,60);stroke-width:2.34px;"/>
                            </g>
                            <g transform="matrix(0.408138,0.91292,0.91292,-0.408138,-116.64,-41.7264)">
                                <circle cx="118.914" cy="53.163" r="130.257" style="fill:none;stroke:rgb(45,13,59);stroke-width:2.4px;"/>
                            </g>
                            <g transform="matrix(0.408141,0.912919,0.912919,-0.408141,-111.001,-38.6947)">
                                <ellipse cx="123.353" cy="55.148" rx="135.12" ry="135.12" style="fill:none;stroke:rgb(48,13,59);stroke-width:2.47px;"/>
                            </g>
                            <g transform="matrix(0.40814,0.91292,0.91292,-0.40814,-105.359,-35.6643)">
                                <ellipse cx="127.793" cy="57.132" rx="139.983" ry="139.983" style="fill:none;stroke:rgb(52,13,59);stroke-width:2.53px;"/>
                            </g>
                            <g transform="matrix(0.408135,0.912922,0.912922,-0.408135,-99.7192,-32.6334)">
                                <ellipse cx="132.232" cy="59.116" rx="144.846" ry="144.846" style="fill:none;stroke:rgb(55,14,58);stroke-width:2.6px;"/>
                            </g>
                            <g transform="matrix(0.408138,0.91292,0.91292,-0.408138,-94.0796,-29.6016)">
                                <ellipse cx="136.671" cy="61.102" rx="149.708" ry="149.709" style="fill:none;stroke:rgb(59,14,58);stroke-width:2.67px;"/>
                            </g>
                            <g transform="matrix(0.408139,0.91292,0.91292,-0.408139,-88.4398,-26.5699)">
                                <ellipse cx="141.111" cy="63.087" rx="154.571" ry="154.571" style="fill:none;stroke:rgb(62,14,57);stroke-width:2.73px;"/>
                            </g>
                            <g transform="matrix(0.408139,0.91292,0.91292,-0.408139,-82.7992,-23.5386)">
                                <circle cx="145.55" cy="65.071" r="159.434" style="fill:none;stroke:rgb(66,14,57);stroke-width:2.8px;"/>
                            </g>
                            <g transform="matrix(0.408137,0.91292,0.91292,-0.408137,-77.1588,-20.507)">
                                <ellipse cx="149.989" cy="67.056" rx="164.297" ry="164.296" style="fill:none;stroke:rgb(69,15,56);stroke-width:2.86px;"/>
                            </g>
                            <g transform="matrix(0.40814,0.912919,0.912919,-0.40814,-71.5185,-17.4753)">
                                <path d="M154.428,-100.119C61.004,-100.119 -14.731,-24.383 -14.731,69.04C-14.731,162.465 61.005,238.199 154.428,238.199C247.852,238.199 323.587,162.464 323.588,69.04C323.588,-24.385 247.851,-100.119 154.428,-100.119Z" style="fill:none;fill-rule:nonzero;stroke:rgb(73,15,56);stroke-width:2.93px;"/>
                            </g>
                            <g transform="matrix(0.408138,0.91292,0.91292,-0.408138,-65.8791,-14.4447)">
                                <path d="M158.868,-102.997C62.759,-102.997 -15.153,-25.084 -15.153,71.025C-15.153,167.135 62.758,245.047 158.868,245.047C254.978,245.047 332.889,167.135 332.89,71.025C332.889,-25.084 254.978,-102.996 158.868,-102.997Z" style="fill:none;fill-rule:nonzero;stroke:rgb(76,15,56);stroke-width:3px;"/>
                            </g>
                            <g transform="matrix(0.408137,0.912921,0.912921,-0.408137,-60.2389,-11.4139)">
                                <path d="M163.308,-105.875C64.513,-105.875 -15.577,-25.786 -15.576,73.01C-15.577,171.806 64.512,251.894 163.308,251.895C262.103,251.895 342.193,171.805 342.192,73.011C342.192,-25.785 262.103,-105.874 163.308,-105.875Z" style="fill:none;fill-rule:nonzero;stroke:rgb(80,15,55);stroke-width:3.06px;"/>
                            </g>
                            <g transform="matrix(0.408139,0.91292,0.91292,-0.408139,-54.5984,-8.38146)">
                                <path d="M167.747,-108.753C66.265,-108.752 -16.001,-26.486 -16.001,74.995C-16,176.475 66.266,258.742 167.747,258.742C269.226,258.742 351.494,176.475 351.494,74.995C351.493,-26.486 269.227,-108.753 167.747,-108.753Z" style="fill:none;fill-rule:nonzero;stroke:rgb(83,16,55);stroke-width:3.13px;"/>
                            </g>
                            <g transform="matrix(0.408138,0.91292,0.91292,-0.408138,-48.9572,-5.35101)">
                                <path d="M172.186,-111.631C68.02,-111.631 -16.424,-27.188 -16.424,76.978C-16.425,181.144 68.019,265.588 172.186,265.589C276.352,265.588 360.796,181.144 360.796,76.979C360.796,-27.188 276.352,-111.632 172.186,-111.631Z" style="fill:none;fill-rule:nonzero;stroke:rgb(87,16,54);stroke-width:3.19px;"/>
                            </g>
                            <g transform="matrix(0.408138,0.91292,0.91292,-0.408138,-43.3174,-2.31953)">
                                <path d="M176.625,-114.509C69.773,-114.509 -16.847,-27.889 -16.848,78.963C-16.848,185.815 69.773,272.437 176.625,272.436C283.477,272.436 370.098,185.815 370.098,78.964C370.098,-27.888 283.477,-114.51 176.625,-114.509Z" style="fill:none;fill-rule:nonzero;stroke:rgb(90,16,54);stroke-width:3.26px;"/>
                            </g>
                            <g transform="matrix(0.408138,0.91292,0.91292,-0.408138,-37.677,0.712241)">
                                <path d="M181.064,-117.387C71.526,-117.387 -17.271,-28.589 -17.272,80.948C-17.271,190.486 71.527,279.283 181.064,279.283C290.602,279.283 379.4,190.486 379.399,80.949C379.4,-28.589 290.602,-117.386 181.064,-117.387Z" style="fill:none;fill-rule:nonzero;stroke:rgb(94,17,53);stroke-width:3.32px;"/>
                            </g>
                            <g transform="matrix(0.408139,0.91292,0.91292,-0.408139,-32.0371,3.74335)">
                                <path d="M185.503,-120.265C73.281,-120.266 -17.695,-29.29 -17.694,82.932C-17.694,195.156 73.281,286.131 185.503,286.131C297.727,286.131 388.702,195.155 388.701,82.934C388.701,-29.29 297.727,-120.266 185.503,-120.265Z" style="fill:none;fill-rule:nonzero;stroke:rgb(97,17,53);stroke-width:3.39px;"/>
                            </g>
                            <g transform="matrix(0.408138,0.91292,0.91292,-0.408138,-26.3966,6.77497)">
                                <path d="M189.943,-123.143C75.034,-123.143 -18.118,-29.991 -18.118,84.917C-18.118,199.827 75.033,292.979 189.943,292.979C304.851,292.978 398.004,199.827 398.003,84.918C398.003,-29.991 304.851,-123.143 189.943,-123.143Z" style="fill:none;fill-rule:nonzero;stroke:rgb(100,17,53);stroke-width:3.46px;"/>
                            </g>
                            <g transform="matrix(0.408139,0.91292,0.91292,-0.408139,-20.7566,9.80647)">
                                <path d="M194.382,-126.021C76.788,-126.022 -18.542,-30.692 -18.541,86.902C-18.542,204.496 76.788,299.826 194.382,299.827C311.976,299.826 407.305,204.497 407.305,86.903C407.306,-30.692 311.976,-126.021 194.382,-126.021Z" style="fill:none;fill-rule:nonzero;stroke:rgb(104,17,52);stroke-width:3.52px;"/>
                            </g>
                            <g transform="matrix(0.408139,0.91292,0.91292,-0.408139,-15.1169,12.8372)">
                                <path d="M198.822,-128.899C78.541,-128.899 -18.964,-31.393 -18.965,88.888C-18.965,209.168 78.542,306.674 198.822,306.674C319.102,306.674 416.609,209.168 416.609,88.887C416.608,-31.393 319.102,-128.899 198.822,-128.899Z" style="fill:none;fill-rule:nonzero;stroke:rgb(107,18,52);stroke-width:3.59px;"/>
                            </g>
                            <g transform="matrix(0.408138,0.91292,0.91292,-0.408138,-9.47613,15.8693)">
                                <path d="M203.26,-131.777C80.295,-131.777 -19.388,-32.094 -19.389,90.872C-19.388,213.837 80.295,313.52 203.26,313.52C326.226,313.52 425.909,213.837 425.909,90.872C425.91,-32.093 326.226,-131.777 203.26,-131.777Z" style="fill:none;fill-rule:nonzero;stroke:rgb(111,18,51);stroke-width:3.65px;"/>
                            </g>
                            <g transform="matrix(0.408139,0.91292,0.91292,-0.408139,-3.83615,18.9005)">
                                <path d="M207.7,-134.655C82.048,-134.655 -19.812,-32.795 -19.812,92.857C-19.812,218.508 82.048,320.369 207.7,320.368C333.351,320.368 435.212,218.507 435.212,92.856C435.212,-32.795 333.351,-134.655 207.7,-134.655Z" style="fill:none;fill-rule:nonzero;stroke:rgb(114,18,51);stroke-width:3.72px;"/>
                            </g>
                            <g transform="matrix(0.408141,0.912919,0.912919,-0.408141,1.80369,21.9318)">
                                <path d="M212.139,-137.533C83.802,-137.533 -20.236,-33.495 -20.234,94.841C-20.235,223.178 83.803,327.216 212.139,327.215C340.477,327.216 444.515,223.178 444.514,94.84C444.514,-33.496 340.476,-137.534 212.139,-137.533Z" style="fill:none;fill-rule:nonzero;stroke:rgb(118,19,50);stroke-width:3.79px;"/>
                            </g>
                            <g transform="matrix(0.408136,0.912921,0.912921,-0.408136,7.44536,24.9628)">
                                <path d="M216.578,-140.411C85.556,-140.413 -20.659,-34.197 -20.658,96.825C-20.659,227.848 85.555,334.063 216.578,334.062C347.6,334.063 453.815,227.848 453.815,96.826C453.816,-34.197 347.601,-140.411 216.578,-140.411Z" style="fill:none;fill-rule:nonzero;stroke:rgb(121,19,50);stroke-width:3.85px;"/>
                            </g>
                            <g transform="matrix(0.408137,0.912921,0.912921,-0.408137,13.0853,27.994)">
                                <path d="M221.018,-143.289C87.31,-143.291 -21.083,-34.898 -21.082,98.81C-21.082,232.518 87.309,340.91 221.018,340.91C354.725,340.911 463.118,232.519 463.118,98.81C463.117,-34.898 354.726,-143.29 221.018,-143.289Z" style="fill:none;fill-rule:nonzero;stroke:rgb(125,19,50);stroke-width:3.92px;"/>
                            </g>
                            <g transform="matrix(0.408138,0.91292,0.91292,-0.408138,18.7256,31.0251)">
                                <path d="M225.457,-146.168C89.063,-146.168 -21.505,-35.599 -21.505,100.795C-21.505,237.188 89.064,347.757 225.457,347.758C361.851,347.757 472.42,237.188 472.419,100.794C472.42,-35.599 361.851,-146.168 225.457,-146.168Z" style="fill:none;fill-rule:nonzero;stroke:rgb(128,19,49);stroke-width:3.98px;"/>
                            </g>
                            <g transform="matrix(0.40814,0.91292,0.91292,-0.40814,24.3656,34.0572)">
                                <path d="M229.896,-149.046C90.816,-149.046 -21.929,-36.3 -21.929,102.78C-21.929,241.858 90.817,354.604 229.896,354.605C368.976,354.605 481.722,241.858 481.721,102.779C481.722,-36.3 368.976,-149.046 229.896,-149.046Z" style="fill:none;fill-rule:nonzero;stroke:rgb(132,20,49);stroke-width:4.05px;"/>
                            </g>
                            <g transform="matrix(0.408138,0.91292,0.91292,-0.408138,30.0053,37.0879)">
                                <path d="M234.336,-151.923C92.571,-151.924 -22.352,-37.001 -22.352,104.764C-22.352,246.53 92.571,361.453 234.336,361.452C376.101,361.452 491.024,246.53 491.023,104.765C491.024,-37 376.101,-151.923 234.336,-151.923Z" style="fill:none;fill-rule:nonzero;stroke:rgb(135,20,48);stroke-width:4.11px;"/>
                            </g>
                            <g transform="matrix(0.408139,0.91292,0.91292,-0.408139,35.6457,40.1194)">
                                <path d="M238.775,-154.802C94.324,-154.802 -22.776,-37.702 -22.776,106.749C-22.775,251.199 94.324,368.3 238.775,368.3C383.226,368.3 500.326,251.2 500.326,106.749C500.325,-37.701 383.226,-154.802 238.775,-154.802Z" style="fill:none;fill-rule:nonzero;stroke:rgb(139,20,48);stroke-width:4.18px;"/>
                            </g>
                            <g transform="matrix(0.40814,0.912919,0.912919,-0.40814,41.2854,43.1512)">
                                <path d="M243.214,-157.679C96.078,-157.679 -23.199,-38.402 -23.199,108.734C-23.199,255.871 96.078,375.147 243.214,375.147C390.351,375.147 509.628,255.869 509.627,108.734C509.627,-38.402 390.35,-157.679 243.214,-157.679Z" style="fill:none;fill-rule:nonzero;stroke:rgb(142,20,48);stroke-width:4.25px;"/>
                            </g>
                            <g transform="matrix(0.408139,0.91292,0.91292,-0.408139,46.9261,46.1824)">
                                <path d="M247.653,-160.558C97.832,-160.558 -23.623,-39.103 -23.623,110.718C-23.623,260.54 97.832,381.995 247.653,381.995C397.476,381.994 518.93,260.54 518.93,110.718C518.93,-39.103 397.475,-160.558 247.653,-160.558Z" style="fill:none;fill-rule:nonzero;stroke:rgb(146,21,47);stroke-width:4.31px;"/>
                            </g>
                            <g transform="matrix(0.408138,0.91292,0.91292,-0.408138,52.5668,49.2136)">
                                <path d="M252.093,-163.436C99.585,-163.436 -24.046,-39.804 -24.046,112.703C-24.046,265.21 99.584,388.842 252.093,388.842C404.599,388.843 528.232,265.209 528.232,112.702C528.232,-39.805 404.6,-163.436 252.093,-163.436Z" style="fill:none;fill-rule:nonzero;stroke:rgb(149,21,47);stroke-width:4.38px;"/>
                            </g>
                            <g transform="matrix(0.40814,0.912919,0.912919,-0.40814,58.2068,52.2457)">
                                <path d="M256.532,-166.314C101.338,-166.313 -24.47,-40.504 -24.47,114.688C-24.47,269.881 101.338,395.69 256.532,395.689C411.725,395.689 537.533,269.88 537.533,114.688C537.534,-40.506 411.725,-166.315 256.532,-166.314Z" style="fill:none;fill-rule:nonzero;stroke:rgb(153,21,46);stroke-width:4.44px;"/>
                            </g>
                            <g transform="matrix(0.408138,0.91292,0.91292,-0.408138,63.8469,55.2752)">
                                <path d="M260.972,-169.192C103.094,-169.192 -24.892,-41.206 -24.892,116.672C-24.893,274.551 103.093,402.536 260.972,402.537C418.85,402.537 546.836,274.551 546.837,116.673C546.836,-41.206 418.851,-169.192 260.972,-169.192Z" style="fill:none;fill-rule:nonzero;stroke:rgb(156,22,46);stroke-width:4.51px;"/>
                            </g>
                            <g transform="matrix(0.408137,0.912921,0.912921,-0.408137,69.4875,58.3065)">
                                <path d="M265.411,-172.071C104.847,-172.07 -25.316,-41.908 -25.316,118.656C-25.316,279.221 104.847,409.383 265.411,409.383C425.975,409.384 556.139,279.221 556.139,118.657C556.138,-41.907 425.976,-172.07 265.411,-172.071Z" style="fill:none;fill-rule:nonzero;stroke:rgb(160,22,45);stroke-width:4.58px;"/>
                            </g>
                            <g transform="matrix(0.408138,0.91292,0.91292,-0.408138,75.128,61.338)">
                                <path d="M269.85,-174.949C106.601,-174.948 -25.74,-42.609 -25.739,120.64C-25.74,283.89 106.6,416.23 269.85,416.231C433.1,416.231 565.44,283.89 565.441,120.641C565.44,-42.608 433.1,-174.949 269.85,-174.949Z" style="fill:none;fill-rule:nonzero;stroke:rgb(163,22,45);stroke-width:4.64px;"/>
                            </g>
                            <g transform="matrix(0.408139,0.91292,0.91292,-0.408139,80.7678,64.3704)">
                                <path d="M274.289,-177.826C108.354,-177.827 -26.163,-43.31 -26.163,122.626C-26.164,288.561 108.354,423.079 274.289,423.08C440.224,423.079 574.741,288.562 574.742,122.627C574.742,-43.309 440.225,-177.826 274.289,-177.826Z" style="fill:none;fill-rule:nonzero;stroke:rgb(166,22,45);stroke-width:4.71px;"/>
                            </g>
                            <g transform="matrix(0.408139,0.91292,0.91292,-0.408139,86.4084,67.4017)">
                                <path d="M278.728,-180.705C110.107,-180.705 -26.588,-44.01 -26.588,124.611C-26.587,293.232 110.107,429.926 278.728,429.926C447.35,429.926 584.044,293.232 584.043,124.61C584.044,-44.011 447.349,-180.704 278.728,-180.705Z" style="fill:none;fill-rule:nonzero;stroke:rgb(170,23,44);stroke-width:4.77px;"/>
                            </g>
                            <g transform="matrix(0.408139,0.91292,0.91292,-0.408139,92.0478,70.4328)">
                                <path d="M283.168,-183.582C111.861,-183.582 -27.01,-44.71 -27.011,126.596C-27.011,297.903 111.861,436.774 283.168,436.774C454.474,436.774 593.345,297.902 593.346,126.596C593.346,-44.711 454.475,-183.582 283.168,-183.582Z" style="fill:none;fill-rule:nonzero;stroke:rgb(173,23,44);stroke-width:4.84px;"/>
                            </g>
                            <g transform="matrix(0.408139,0.91292,0.91292,-0.408139,97.6882,73.4643)">
                                <path d="M287.607,-186.46C113.615,-186.46 -27.434,-45.411 -27.434,128.58C-27.433,302.573 113.615,443.621 287.607,443.621C461.6,443.621 602.648,302.572 602.647,128.58C602.647,-45.412 461.599,-186.46 287.607,-186.46Z" style="fill:none;fill-rule:nonzero;stroke:rgb(177,23,43);stroke-width:4.9px;"/>
                            </g>
                            <g transform="matrix(0.408138,0.91292,0.91292,-0.408138,103.328,76.4952)">
                                <path d="M292.047,-189.338C115.369,-189.338 -27.857,-46.112 -27.856,130.565C-27.857,307.243 115.369,450.469 292.047,450.469C468.724,450.469 611.95,307.243 611.95,130.565C611.95,-46.112 468.724,-189.338 292.047,-189.338Z" style="fill:none;fill-rule:nonzero;stroke:rgb(180,24,43);stroke-width:4.97px;"/>
                            </g>
                            <g transform="matrix(0.40814,0.91292,0.91292,-0.40814,108.968,79.5273)">
                                <path d="M296.486,-192.216C117.122,-192.216 -28.281,-46.814 -28.28,132.55C-28.281,311.915 117.123,457.316 296.486,457.316C475.849,457.316 621.252,311.914 621.252,132.549C621.252,-46.814 475.848,-192.216 296.486,-192.216Z" style="fill:none;fill-rule:nonzero;stroke:rgb(184,24,42);stroke-width:5.04px;"/>
                            </g>
                            <g transform="matrix(0.408139,0.91292,0.91292,-0.408139,114.608,82.5582)">
                                <path d="M300.925,-195.094C118.877,-195.094 -28.704,-47.515 -28.704,134.535C-28.704,316.584 118.876,464.165 300.925,464.164C482.974,464.164 630.554,316.583 630.554,134.535C630.554,-47.514 482.973,-195.094 300.925,-195.094Z" style="fill:none;fill-rule:nonzero;stroke:rgb(187,24,42);stroke-width:5.1px;"/>
                            </g>
                            <g transform="matrix(0.408137,0.912921,0.912921,-0.408137,120.25,85.589)">
                                <path d="M305.364,-197.973C120.631,-197.973 -29.127,-48.217 -29.128,136.518C-29.128,321.253 120.629,471.01 305.364,471.011C490.097,471.01 639.855,321.254 639.856,136.519C639.856,-48.216 490.099,-197.973 305.364,-197.973Z" style="fill:none;fill-rule:nonzero;stroke:rgb(191,24,42);stroke-width:5.17px;"/>
                            </g>
                            <g transform="matrix(0.408138,0.91292,0.91292,-0.408138,125.89,88.6212)">
                                <path d="M309.803,-200.851C122.382,-200.851 -29.551,-48.917 -29.552,138.504C-29.552,325.923 122.383,477.857 309.803,477.858C497.223,477.858 649.158,325.924 649.157,138.504C649.158,-48.916 497.223,-200.851 309.803,-200.851Z" style="fill:none;fill-rule:nonzero;stroke:rgb(194,25,41);stroke-width:5.23px;"/>
                            </g>
                            <g transform="matrix(0.408139,0.91292,0.91292,-0.408139,131.53,91.6525)">
                                <path d="M314.242,-203.729C124.136,-203.729 -29.975,-49.617 -29.974,140.488C-29.974,330.594 124.137,484.706 314.242,484.705C504.349,484.705 658.46,330.593 658.46,140.488C658.46,-49.617 504.348,-203.73 314.242,-203.729Z" style="fill:none;fill-rule:nonzero;stroke:rgb(198,25,41);stroke-width:5.3px;"/>
                            </g>
                            <g transform="matrix(0.408139,0.91292,0.91292,-0.408139,137.17,94.6838)">
                                <path d="M318.682,-206.606C125.89,-206.607 -30.398,-50.318 -30.398,142.473C-30.399,335.265 125.89,491.553 318.682,491.553C511.474,491.552 667.761,335.265 667.762,142.473C667.762,-50.319 511.473,-206.606 318.682,-206.606Z" style="fill:none;fill-rule:nonzero;stroke:rgb(201,25,40);stroke-width:5.36px;"/>
                            </g>
                            <g transform="matrix(0.408138,0.91292,0.91292,-0.408138,142.81,97.715)">
                                <path d="M323.121,-209.485C127.644,-209.485 -30.821,-51.019 -30.822,144.458C-30.821,339.935 127.644,498.4 323.121,498.401C518.598,498.4 677.064,339.935 677.064,144.458C677.063,-51.019 518.598,-209.484 323.121,-209.485Z" style="fill:none;fill-rule:nonzero;stroke:rgb(205,25,40);stroke-width:5.43px;"/>
                            </g>
                            <g transform="matrix(0.408139,0.91292,0.91292,-0.408139,148.45,100.746)">
                                <path d="M327.561,-212.363C129.398,-212.362 -31.244,-51.72 -31.244,146.443C-31.244,344.605 129.399,505.248 327.561,505.247C525.724,505.247 686.366,344.605 686.366,146.442C686.366,-51.721 525.723,-212.363 327.561,-212.363Z" style="fill:none;fill-rule:nonzero;stroke:rgb(208,26,39);stroke-width:5.5px;"/>
                            </g>
                            <g transform="matrix(0.408138,0.91292,0.91292,-0.408138,154.091,103.777)">
                                <path d="M332,-215.241C131.152,-215.241 -31.668,-52.422 -31.668,148.427C-31.668,349.276 131.151,512.095 332,512.095C532.848,512.095 695.668,349.275 695.667,148.427C695.668,-52.422 532.848,-215.241 332,-215.241Z" style="fill:none;fill-rule:nonzero;stroke:rgb(212,26,39);stroke-width:5.56px;"/>
                            </g>
                            <g transform="matrix(0.408138,0.91292,0.91292,-0.408138,159.731,106.809)">
                                <path d="M336.439,-218.119C132.904,-218.119 -32.092,-53.122 -32.092,150.411C-32.092,353.946 132.904,518.942 336.439,518.942C539.972,518.943 704.969,353.946 704.969,150.412C704.97,-53.122 539.973,-218.119 336.439,-218.119Z" style="fill:none;fill-rule:nonzero;stroke:rgb(215,26,39);stroke-width:5.63px;"/>
                            </g>
                            <g transform="matrix(0.408139,0.91292,0.91292,-0.408139,165.371,109.84)">
                                <path d="M340.879,-220.997C134.659,-220.996 -32.515,-53.823 -32.515,152.397C-32.514,358.616 134.659,525.791 340.879,525.79C547.098,525.79 714.272,358.617 714.272,152.397C714.271,-53.822 547.098,-220.997 340.879,-220.997Z" style="fill:none;fill-rule:nonzero;stroke:rgb(219,27,38);stroke-width:5.69px;"/>
                            </g>
                            <g transform="matrix(0.40814,0.912919,0.912919,-0.40814,171.011,112.872)">
                                <path d="M345.317,-223.875C136.412,-223.874 -32.939,-54.523 -32.938,154.382C-32.938,363.287 136.412,532.638 345.317,532.638C554.223,532.637 723.574,363.286 723.575,154.381C723.573,-54.524 554.222,-223.875 345.317,-223.875Z" style="fill:none;fill-rule:nonzero;stroke:rgb(222,27,38);stroke-width:5.76px;"/>
                            </g>
                            <g transform="matrix(0.408137,0.912921,0.912921,-0.408137,176.653,115.902)">
                                <path d="M349.757,-226.754C138.167,-226.754 -33.362,-55.226 -33.362,156.364C-33.362,367.955 138.165,539.483 349.757,539.484C561.347,539.484 732.875,367.957 732.876,156.366C732.876,-55.225 561.348,-226.754 349.757,-226.754Z" style="fill:none;fill-rule:nonzero;stroke:rgb(226,27,37);stroke-width:5.83px;"/>
                            </g>
                            <g transform="matrix(0.408138,0.91292,0.91292,-0.408138,182.292,118.934)">
                                <path d="M354.196,-229.631C139.92,-229.632 -33.786,-55.926 -33.785,158.35C-33.786,372.626 139.92,546.332 354.196,546.331C568.472,546.332 742.178,372.627 742.178,158.35C742.178,-55.926 568.472,-229.632 354.196,-229.631Z" style="fill:none;fill-rule:nonzero;stroke:rgb(229,27,37);stroke-width:5.89px;"/>
                            </g>
                            <g transform="matrix(0.408139,0.91292,0.91292,-0.408139,187.933,121.965)">
                                <path d="M358.635,-232.51C141.674,-232.51 -34.209,-56.628 -34.21,160.335C-34.208,377.296 141.674,553.179 358.635,553.178C575.597,553.179 751.48,377.296 751.48,160.334C751.48,-56.628 575.597,-232.51 358.635,-232.51Z" style="fill:none;fill-rule:nonzero;stroke:rgb(233,28,36);stroke-width:5.96px;"/>
                            </g>
                            <g transform="matrix(0.408138,0.91292,0.91292,-0.408138,193.573,124.996)">
                                <path d="M363.075,-235.388C143.427,-235.387 -34.632,-57.328 -34.632,162.319C-34.632,381.967 143.427,560.026 363.075,560.027C582.723,560.026 760.781,381.967 760.782,162.32C760.782,-57.328 582.723,-235.387 363.075,-235.388Z" style="fill:none;fill-rule:nonzero;stroke:rgb(236,28,36);stroke-width:6.02px;"/>
                            </g>
                        </g>
                    </g>
                </g>
            </g>
        </g>
    </g>
</svg>
